<svg width="10" height="10" viewBox="0 0 10 10" fill="none" xmlns="http://www.w3.org/2000/svg">
<path d="M5.25 9.5C6.09057 9.5 6.91226 9.25074 7.61117 8.78375C8.31008 8.31675 8.85482 7.65299 9.17649 6.87641C9.49816 6.09982 9.58232 5.24529 9.41834 4.42087C9.25435 3.59645 8.84958 2.83917 8.2552 2.2448C7.66083 1.65042 6.90355 1.24565 6.07913 1.08166C5.25471 0.917677 4.40018 1.00184 3.6236 1.32351C2.84701 1.64519 2.18325 2.18992 1.71625 2.88883C1.24926 3.58774 1 4.40943 1 5.25C1 5.95267 1.17 6.6152 1.47222 7.19886L1 9.5L3.30114 9.02778C3.88481 9.33 4.54781 9.5 5.25 9.5Z" stroke="#1DA1F2" stroke-linecap="round" stroke-linejoin="round"/>
</svg>
