<svg width="20" height="21" viewBox="0 0 20 21" fill="none" xmlns="http://www.w3.org/2000/svg">
<path d="M14.1667 12.1667C14.3877 12.1667 14.5996 12.0789 14.7559 11.9226C14.9122 11.7663 15 11.5543 15 11.3333C15 11.1123 14.9122 10.9004 14.7559 10.7441C14.5996 10.5878 14.3877 10.5 14.1667 10.5C13.9457 10.5 13.7337 10.5878 13.5774 10.7441C13.4211 10.9004 13.3333 11.1123 13.3333 11.3333C13.3333 11.5543 13.4211 11.7663 13.5774 11.9226C13.7337 12.0789 13.9457 12.1667 14.1667 12.1667ZM14.1667 15.5C14.3877 15.5 14.5996 15.4122 14.7559 15.2559C14.9122 15.0996 15 14.8877 15 14.6667C15 14.4457 14.9122 14.2337 14.7559 14.0774C14.5996 13.9211 14.3877 13.8333 14.1667 13.8333C13.9457 13.8333 13.7337 13.9211 13.5774 14.0774C13.4211 14.2337 13.3333 14.4457 13.3333 14.6667C13.3333 14.8877 13.4211 15.0996 13.5774 15.2559C13.7337 15.4122 13.9457 15.5 14.1667 15.5ZM10.8333 11.3333C10.8333 11.5543 10.7455 11.7663 10.5893 11.9226C10.433 12.0789 10.221 12.1667 10 12.1667C9.77899 12.1667 9.56702 12.0789 9.41074 11.9226C9.25446 11.7663 9.16667 11.5543 9.16667 11.3333C9.16667 11.1123 9.25446 10.9004 9.41074 10.7441C9.56702 10.5878 9.77899 10.5 10 10.5C10.221 10.5 10.433 10.5878 10.5893 10.7441C10.7455 10.9004 10.8333 11.1123 10.8333 11.3333ZM10.8333 14.6667C10.8333 14.8877 10.7455 15.0996 10.5893 15.2559C10.433 15.4122 10.221 15.5 10 15.5C9.77899 15.5 9.56702 15.4122 9.41074 15.2559C9.25446 15.0996 9.16667 14.8877 9.16667 14.6667C9.16667 14.4457 9.25446 14.2337 9.41074 14.0774C9.56702 13.9211 9.77899 13.8333 10 13.8333C10.221 13.8333 10.433 13.9211 10.5893 14.0774C10.7455 14.2337 10.8333 14.4457 10.8333 14.6667ZM5.83333 12.1667C6.05435 12.1667 6.26631 12.0789 6.42259 11.9226C6.57887 11.7663 6.66667 11.5543 6.66667 11.3333C6.66667 11.1123 6.57887 10.9004 6.42259 10.7441C6.26631 10.5878 6.05435 10.5 5.83333 10.5C5.61232 10.5 5.40036 10.5878 5.24408 10.7441C5.0878 10.9004 5 11.1123 5 11.3333C5 11.5543 5.0878 11.7663 5.24408 11.9226C5.40036 12.0789 5.61232 12.1667 5.83333 12.1667ZM5.83333 15.5C6.05435 15.5 6.26631 15.4122 6.42259 15.2559C6.57887 15.0996 6.66667 14.8877 6.66667 14.6667C6.66667 14.4457 6.57887 14.2337 6.42259 14.0774C6.26631 13.9211 6.05435 13.8333 5.83333 13.8333C5.61232 13.8333 5.40036 13.9211 5.24408 14.0774C5.0878 14.2337 5 14.4457 5 14.6667C5 14.8877 5.0878 15.0996 5.24408 15.2559C5.40036 15.4122 5.61232 15.5 5.83333 15.5Z" fill="#7B8EC8"/>
<path fill-rule="evenodd" clip-rule="evenodd" d="M5.83366 1.95831C5.99942 1.95831 6.15839 2.02416 6.2756 2.14137C6.39281 2.25858 6.45866 2.41755 6.45866 2.58331V3.21915C7.01033 3.20831 7.61783 3.20831 8.28616 3.20831H11.7137C12.3828 3.20831 12.9903 3.20831 13.542 3.21915V2.58331C13.542 2.41755 13.6078 2.25858 13.725 2.14137C13.8423 2.02416 14.0012 1.95831 14.167 1.95831C14.3328 1.95831 14.4917 2.02416 14.6089 2.14137C14.7261 2.25858 14.792 2.41755 14.792 2.58331V3.27248C15.0087 3.28915 15.2137 3.30998 15.4078 3.33581C16.3845 3.46748 17.1753 3.74415 17.7995 4.36748C18.4228 4.99165 18.6995 5.78248 18.8312 6.75915C18.9587 7.70915 18.9587 8.92165 18.9587 10.4533V12.2133C18.9587 13.745 18.9587 14.9583 18.8312 15.9075C18.6995 16.8841 18.4228 17.675 17.7995 18.2991C17.1753 18.9225 16.3845 19.1991 15.4078 19.3308C14.4578 19.4583 13.2453 19.4583 11.7137 19.4583H8.28699C6.75533 19.4583 5.54199 19.4583 4.59283 19.3308C3.61616 19.1991 2.82533 18.9225 2.20116 18.2991C1.57783 17.675 1.30116 16.8841 1.16949 15.9075C1.04199 14.9575 1.04199 13.745 1.04199 12.2133V10.4533C1.04199 8.92165 1.04199 7.70831 1.16949 6.75915C1.30116 5.78248 1.57783 4.99165 2.20116 4.36748C2.82533 3.74415 3.61616 3.46748 4.59283 3.33581C4.78699 3.30998 4.99283 3.28915 5.20866 3.27248V2.58331C5.20866 2.41755 5.27451 2.25858 5.39172 2.14137C5.50893 2.02416 5.6679 1.95831 5.83366 1.95831ZM4.75866 4.57498C3.92116 4.68748 3.43783 4.89915 3.08533 5.25165C2.73283 5.60415 2.52116 6.08748 2.40866 6.92581C2.38949 7.06748 2.37366 7.21748 2.36033 7.37498H17.6403C17.627 7.21665 17.6112 7.06748 17.592 6.92498C17.4795 6.08748 17.2678 5.60415 16.9153 5.25165C16.5628 4.89915 16.0795 4.68748 15.2412 4.57498C14.3853 4.45998 13.2562 4.45831 11.667 4.45831H8.33366C6.74449 4.45831 5.61616 4.45998 4.75866 4.57498ZM2.29199 10.5C2.29199 9.78831 2.29199 9.16915 2.30283 8.62498H17.6978C17.7087 9.16915 17.7087 9.78831 17.7087 10.5V12.1666C17.7087 13.7558 17.707 14.885 17.592 15.7416C17.4795 16.5791 17.2678 17.0625 16.9153 17.415C16.5628 17.7675 16.0795 17.9791 15.2412 18.0916C14.3853 18.2066 13.2562 18.2083 11.667 18.2083H8.33366C6.74449 18.2083 5.61616 18.2066 4.75866 18.0916C3.92116 17.9791 3.43783 17.7675 3.08533 17.415C2.73283 17.0625 2.52116 16.5791 2.40866 15.7408C2.29366 14.885 2.29199 13.7558 2.29199 12.1666V10.5Z" fill="#7B8EC8"/>
</svg>
