<svg width="287" height="200" viewBox="0 0 287 200" fill="none" xmlns="http://www.w3.org/2000/svg">
<path d="M232.83 0H61.4009C53.5112 0 47.1152 6.39593 47.1152 14.2857V185.714C47.1152 193.604 53.5112 200 61.4009 200H232.83C240.719 200 247.115 193.604 247.115 185.714V14.2857C247.115 6.39593 240.719 0 232.83 0Z" fill="#0F1117"/>
<g filter="url(#filter0_d_644_5880)">
<path d="M208.862 14H16.1379C12.1958 14 9 17.198 9 21.1429V56.8571C9 60.802 12.1958 64 16.1379 64H208.862C212.804 64 216 60.802 216 56.8571V21.1429C216 17.198 212.804 14 208.862 14Z" fill="#212734"/>
</g>
<path d="M107.504 25.4286H70.3863C68.021 25.4286 66.1035 27.3474 66.1035 29.7143C66.1035 32.0812 68.021 34 70.3863 34H107.504C109.869 34 111.786 32.0812 111.786 29.7143C111.786 27.3474 109.869 25.4286 107.504 25.4286Z" fill="url(#paint0_linear_644_5880)" fill-opacity="0.7"/>
<path d="M133.2 44H70.3863C68.021 44 66.1035 45.9188 66.1035 48.2857C66.1035 50.6526 68.021 52.5714 70.3863 52.5714H133.2C135.565 52.5714 137.483 50.6526 137.483 48.2857C137.483 45.9188 135.565 44 133.2 44Z" fill="#3F4354"/>
<path d="M48.5435 18.5714H21.4007C17.4558 18.5714 14.2578 21.7694 14.2578 25.7143V52.8571C14.2578 56.802 17.4558 60 21.4007 60H48.5435C52.4884 60 55.6864 56.802 55.6864 52.8571V25.7143C55.6864 21.7694 52.4884 18.5714 48.5435 18.5714Z" fill="url(#paint1_linear_644_5880)"/>
<path d="M31.7185 43.9714H34.5757L34.6071 42.8714C34.6071 41.4257 35.5185 41.0486 36.8071 40.64C38.0997 40.2723 39.2374 39.4938 40.0483 38.4221C40.8591 37.3504 41.299 36.0439 41.3014 34.7C41.3297 33.8795 41.1874 33.0621 40.8834 32.2994C40.5794 31.5368 40.1205 30.8455 39.5355 30.2695C38.9506 29.6934 38.2524 29.245 37.4852 28.9527C36.718 28.6604 35.8985 28.5306 35.0785 28.5714C34.212 28.5525 33.3506 28.7099 32.5467 29.0339C31.7428 29.3579 31.013 29.8418 30.4018 30.4563C29.7905 31.0708 29.3104 31.803 28.9906 32.6086C28.6708 33.4142 28.518 34.2764 28.5414 35.1429H31.4957C31.4845 34.6645 31.5689 34.1886 31.7439 33.7433C31.9189 33.2979 32.1811 32.8919 32.5151 32.5492C32.849 32.2065 33.248 31.9338 33.6887 31.7473C34.1294 31.5608 34.6029 31.4641 35.0814 31.4629C35.5129 31.4378 35.9448 31.506 36.3477 31.6628C36.7505 31.8195 37.1149 32.0611 37.416 32.3712C37.7172 32.6813 37.948 33.0526 38.0929 33.4599C38.2378 33.8671 38.2933 34.3008 38.2557 34.7314C38.2367 35.4284 37.9943 36.1009 37.5643 36.6497C37.1342 37.1986 36.5393 37.5948 35.8671 37.78L34.83 38.1914C33.8146 38.4361 32.928 39.0531 32.346 39.9204C31.7639 40.7877 31.5288 41.8419 31.6871 42.8743L31.7185 43.9714ZM33.1328 50.7629C33.4126 50.7728 33.6915 50.7265 33.9531 50.6268C34.2147 50.5271 34.4537 50.376 34.6558 50.1823C34.858 49.9887 35.0193 49.7564 35.1302 49.4994C35.2411 49.2423 35.2993 48.9657 35.3014 48.6857C35.2989 48.406 35.2404 48.1296 35.1294 47.8729C35.0183 47.6162 34.8569 47.3843 34.6548 47.191C34.4527 46.9976 34.2139 46.8467 33.9525 46.7472C33.6911 46.6477 33.4124 46.6015 33.1328 46.6114C32.8533 46.6015 32.5746 46.6477 32.3132 46.7472C32.0518 46.8467 31.813 46.9976 31.6108 47.191C31.4087 47.3843 31.2474 47.6162 31.1363 47.8729C31.0253 48.1296 30.9668 48.406 30.9643 48.6857C30.9664 48.9657 31.0246 49.2423 31.1355 49.4994C31.2464 49.7564 31.4077 49.9887 31.6098 50.1823C31.812 50.376 32.0509 50.5271 32.3125 50.6268C32.5741 50.7265 32.8531 50.7728 33.1328 50.7629Z" fill="#212734"/>
<g filter="url(#filter1_d_644_5880)">
<path d="M78.1379 75H270.862C272.755 75 274.571 75.7525 275.909 77.0921C277.248 78.4316 278 80.2485 278 82.1429V117.857C278 119.752 277.248 121.568 275.909 122.908C274.571 124.247 272.755 125 270.862 125H78.1379C76.2448 125 74.4293 124.247 73.0907 122.908C71.752 121.568 71 119.752 71 117.857V82.1429C71 80.2485 71.752 78.4316 73.0907 77.0921C74.4293 75.7525 76.2448 75 78.1379 75V75Z" fill="#212734"/>
</g>
<path d="M169.504 86.4285H132.386C130.021 86.4285 128.104 88.3473 128.104 90.7142C128.104 93.0812 130.021 95 132.386 95H169.504C171.869 95 173.786 93.0812 173.786 90.7142C173.786 88.3473 171.869 86.4285 169.504 86.4285Z" fill="url(#paint2_linear_644_5880)" fill-opacity="0.7"/>
<path d="M195.2 105H132.386C130.021 105 128.104 106.919 128.104 109.286C128.104 111.653 130.021 113.571 132.386 113.571H195.2C197.565 113.571 199.483 111.653 199.483 109.286C199.483 106.919 197.565 105 195.2 105Z" fill="#3F4354"/>
<path d="M109.545 79.2857H82.4211C78.479 79.2857 75.2832 82.4837 75.2832 86.4286V113.571C75.2832 117.516 78.479 120.714 82.4211 120.714H109.545C113.487 120.714 116.683 117.516 116.683 113.571V86.4286C116.683 82.4837 113.487 79.2857 109.545 79.2857Z" fill="url(#paint3_linear_644_5880)"/>
<path d="M92.732 104.686H95.5871L95.6186 103.586C95.6186 102.14 96.5294 101.763 97.817 101.354C99.1087 100.987 100.246 100.208 101.056 99.1364C101.866 98.0647 102.306 96.7582 102.308 95.4143C102.337 94.5938 102.194 93.7764 101.891 93.0137C101.587 92.2511 101.128 91.5598 100.544 90.9838C99.959 90.4077 99.2613 89.9593 98.4947 89.667C97.728 89.3747 96.9091 89.2449 96.0897 89.2857C95.2237 89.2668 94.3629 89.4242 93.5596 89.7482C92.7562 90.0722 92.027 90.5561 91.4161 91.1706C90.8052 91.7851 90.3255 92.5173 90.0059 93.3229C89.6863 94.1285 89.5336 94.9907 89.557 95.8571H92.5093C92.4981 95.3787 92.5824 94.9029 92.7573 94.4576C92.9322 94.0122 93.1942 93.6062 93.528 93.2635C93.8617 92.9208 94.2604 92.6481 94.7008 92.4616C95.1412 92.2751 95.6143 92.1783 96.0925 92.1771C96.5238 92.1521 96.9553 92.2203 97.3579 92.377C97.7605 92.5338 98.1246 92.7754 98.4255 93.0855C98.7265 93.3956 98.9572 93.7669 99.102 94.1742C99.2467 94.5814 99.3022 95.0151 99.2646 95.4457C99.2456 96.1427 99.0034 96.8152 98.5737 97.364C98.1439 97.9128 97.5494 98.3091 96.8777 98.4943L95.8413 98.9057C94.8265 99.1504 93.9406 99.7674 93.359 100.635C92.7773 101.502 92.5424 102.556 92.7006 103.589L92.732 104.686ZM94.1453 111.477C94.4249 111.487 94.7036 111.441 94.965 111.341C95.2264 111.241 95.4652 111.09 95.6672 110.897C95.8693 110.703 96.0305 110.471 96.1413 110.214C96.2521 109.957 96.3102 109.68 96.3124 109.4C96.3099 109.12 96.2514 108.844 96.1404 108.587C96.0295 108.33 95.8682 108.099 95.6662 107.905C95.4642 107.712 95.2256 107.561 94.9644 107.461C94.7031 107.362 94.4246 107.316 94.1453 107.326C93.8659 107.316 93.5874 107.362 93.3262 107.461C93.065 107.561 92.8263 107.712 92.6243 107.905C92.4224 108.099 92.2611 108.33 92.1501 108.587C92.0392 108.844 91.9807 109.12 91.9782 109.4C91.9803 109.68 92.0385 109.957 92.1493 110.214C92.2601 110.471 92.4213 110.703 92.6233 110.897C92.8254 111.09 93.0641 111.241 93.3256 111.341C93.587 111.441 93.8657 111.487 94.1453 111.477Z" fill="#212734"/>
<g filter="url(#filter2_d_644_5880)">
<path d="M16.1379 137H208.862C210.755 137 212.571 137.753 213.909 139.092C215.248 140.432 216 142.248 216 144.143V179.857C216 181.752 215.248 183.568 213.909 184.908C212.571 186.247 210.755 187 208.862 187H16.1379C14.2448 187 12.4293 186.247 11.0907 184.908C9.75203 183.568 9 181.752 9 179.857V144.143C9 142.248 9.75203 140.432 11.0907 139.092C12.4293 137.753 14.2448 137 16.1379 137V137Z" fill="#212734"/>
</g>
<path d="M107.504 148.429H70.3863C68.021 148.429 66.1035 150.347 66.1035 152.714C66.1035 155.081 68.021 157 70.3863 157H107.504C109.869 157 111.786 155.081 111.786 152.714C111.786 150.347 109.869 148.429 107.504 148.429Z" fill="url(#paint4_linear_644_5880)" fill-opacity="0.7"/>
<path d="M133.2 167H70.3863C68.021 167 66.1035 168.919 66.1035 171.286C66.1035 173.653 68.021 175.571 70.3863 175.571H133.2C135.565 175.571 137.483 173.653 137.483 171.286C137.483 168.919 135.565 167 133.2 167Z" fill="#3F4354"/>
<path d="M47.5453 141.286H20.4211C16.479 141.286 13.2832 144.484 13.2832 148.429V175.571C13.2832 179.516 16.479 182.714 20.4211 182.714H47.5453C51.4874 182.714 54.6832 179.516 54.6832 175.571V148.429C54.6832 144.484 51.4874 141.286 47.5453 141.286Z" fill="url(#paint5_linear_644_5880)"/>
<path d="M30.732 166.686H33.5871L33.6186 165.586C33.6186 164.14 34.5294 163.763 35.817 163.354C37.1087 162.987 38.2457 162.208 39.056 161.136C39.8663 160.065 40.3058 158.758 40.3082 157.414C40.3365 156.594 40.1943 155.776 39.8905 155.014C39.5868 154.251 39.1281 153.56 38.5436 152.984C37.959 152.408 37.2613 151.959 36.4947 151.667C35.728 151.375 34.9091 151.245 34.0897 151.286C33.2237 151.267 32.3629 151.424 31.5596 151.748C30.7562 152.072 30.027 152.556 29.4161 153.171C28.8052 153.785 28.3255 154.517 28.0059 155.323C27.6863 156.129 27.5336 156.991 27.557 157.857H30.5093C30.4981 157.379 30.5824 156.903 30.7573 156.458C30.9322 156.012 31.1942 155.606 31.528 155.264C31.8617 154.921 32.2604 154.648 32.7008 154.462C33.1412 154.275 33.6143 154.178 34.0925 154.177C34.5238 154.152 34.9553 154.22 35.3579 154.377C35.7605 154.534 36.1246 154.775 36.4255 155.086C36.7265 155.396 36.9572 155.767 37.102 156.174C37.2467 156.581 37.3022 157.015 37.2646 157.446C37.2456 158.143 37.0034 158.815 36.5737 159.364C36.1439 159.913 35.5494 160.309 34.8777 160.494L33.8413 160.906C32.8265 161.15 31.9406 161.768 31.359 162.635C30.7773 163.502 30.5424 164.556 30.7006 165.589L30.732 166.686ZM32.1453 173.477C32.4249 173.487 32.7036 173.441 32.965 173.341C33.2264 173.241 33.4652 173.09 33.6672 172.897C33.8693 172.703 34.0305 172.471 34.1413 172.214C34.2521 171.957 34.3102 171.68 34.3124 171.4C34.3099 171.12 34.2514 170.844 34.1404 170.587C34.0295 170.331 33.8682 170.099 33.6662 169.905C33.4642 169.712 33.2256 169.561 32.9644 169.462C32.7031 169.362 32.4246 169.316 32.1453 169.326C31.8659 169.316 31.5874 169.362 31.3262 169.462C31.065 169.561 30.8263 169.712 30.6243 169.905C30.4224 170.099 30.2611 170.331 30.1501 170.587C30.0392 170.844 29.9807 171.12 29.9782 171.4C29.9803 171.68 30.0385 171.957 30.1493 172.214C30.2601 172.471 30.4213 172.703 30.6233 172.897C30.8254 173.09 31.0641 173.241 31.3256 173.341C31.587 173.441 31.8657 173.487 32.1453 173.477Z" fill="#212734"/>
<defs>
<filter id="filter0_d_644_5880" x="0.428572" y="9.71429" width="224.143" height="67.1429" filterUnits="userSpaceOnUse" color-interpolation-filters="sRGB">
<feFlood flood-opacity="0" result="BackgroundImageFix"/>
<feColorMatrix in="SourceAlpha" type="matrix" values="0 0 0 0 0 0 0 0 0 0 0 0 0 0 0 0 0 0 127 0" result="hardAlpha"/>
<feOffset dy="4.28571"/>
<feGaussianBlur stdDeviation="4.28571"/>
<feColorMatrix type="matrix" values="0 0 0 0 0 0 0 0 0 0 0 0 0 0 0 0 0 0 0.161 0"/>
<feBlend mode="normal" in2="BackgroundImageFix" result="effect1_dropShadow_644_5880"/>
<feBlend mode="normal" in="SourceGraphic" in2="effect1_dropShadow_644_5880" result="shape"/>
</filter>
<filter id="filter1_d_644_5880" x="62.4286" y="70.7143" width="224.143" height="67.1429" filterUnits="userSpaceOnUse" color-interpolation-filters="sRGB">
<feFlood flood-opacity="0" result="BackgroundImageFix"/>
<feColorMatrix in="SourceAlpha" type="matrix" values="0 0 0 0 0 0 0 0 0 0 0 0 0 0 0 0 0 0 127 0" result="hardAlpha"/>
<feOffset dy="4.28571"/>
<feGaussianBlur stdDeviation="4.28571"/>
<feColorMatrix type="matrix" values="0 0 0 0 0 0 0 0 0 0 0 0 0 0 0 0 0 0 0.161 0"/>
<feBlend mode="normal" in2="BackgroundImageFix" result="effect1_dropShadow_644_5880"/>
<feBlend mode="normal" in="SourceGraphic" in2="effect1_dropShadow_644_5880" result="shape"/>
</filter>
<filter id="filter2_d_644_5880" x="0.428572" y="132.714" width="224.143" height="67.1429" filterUnits="userSpaceOnUse" color-interpolation-filters="sRGB">
<feFlood flood-opacity="0" result="BackgroundImageFix"/>
<feColorMatrix in="SourceAlpha" type="matrix" values="0 0 0 0 0 0 0 0 0 0 0 0 0 0 0 0 0 0 127 0" result="hardAlpha"/>
<feOffset dy="4.28571"/>
<feGaussianBlur stdDeviation="4.28571"/>
<feColorMatrix type="matrix" values="0 0 0 0 0 0 0 0 0 0 0 0 0 0 0 0 0 0 0.161 0"/>
<feBlend mode="normal" in2="BackgroundImageFix" result="effect1_dropShadow_644_5880"/>
<feBlend mode="normal" in="SourceGraphic" in2="effect1_dropShadow_644_5880" result="shape"/>
</filter>
<linearGradient id="paint0_linear_644_5880" x1="107.254" y1="26.9011" x2="72.2505" y2="36.4229" gradientUnits="userSpaceOnUse">
<stop stop-color="#171C23" stop-opacity="0.58"/>
<stop offset="1" stop-color="#13161C"/>
</linearGradient>
<linearGradient id="paint1_linear_644_5880" x1="8.15129" y1="18.5714" x2="57.6578" y2="21.3567" gradientUnits="userSpaceOnUse">
<stop stop-color="#FF7000"/>
<stop offset="0.9999" stop-color="#E2985E"/>
<stop offset="1" stop-color="#E2995F"/>
</linearGradient>
<linearGradient id="paint2_linear_644_5880" x1="169.254" y1="87.9011" x2="134.25" y2="97.4228" gradientUnits="userSpaceOnUse">
<stop stop-color="#171C23" stop-opacity="0.58"/>
<stop offset="1" stop-color="#13161C"/>
</linearGradient>
<linearGradient id="paint3_linear_644_5880" x1="69.1809" y1="79.2857" x2="118.653" y2="82.0671" gradientUnits="userSpaceOnUse">
<stop stop-color="#FF7000"/>
<stop offset="0.9999" stop-color="#E2985E"/>
<stop offset="1" stop-color="#E2995F"/>
</linearGradient>
<linearGradient id="paint4_linear_644_5880" x1="107.254" y1="149.901" x2="72.2505" y2="159.423" gradientUnits="userSpaceOnUse">
<stop stop-color="#171C23" stop-opacity="0.58"/>
<stop offset="1" stop-color="#13161C"/>
</linearGradient>
<linearGradient id="paint5_linear_644_5880" x1="7.18089" y1="141.286" x2="56.6535" y2="144.067" gradientUnits="userSpaceOnUse">
<stop stop-color="#FF7000"/>
<stop offset="0.9999" stop-color="#E2985E"/>
<stop offset="1" stop-color="#E2995F"/>
</linearGradient>
</defs>
</svg>
