<svg width="18" height="18" viewBox="0 0 18 18" fill="none" xmlns="http://www.w3.org/2000/svg">
<path d="M9.5862 16.2187C9.30045 16.5749 8.70045 16.5749 8.4147 16.2187L2.4147 8.71865C2.32668 8.60825 2.27158 8.47525 2.25572 8.33495C2.23987 8.19464 2.26391 8.0527 2.32507 7.92544C2.38624 7.79818 2.48205 7.69074 2.60152 7.61547C2.72098 7.5402 2.85925 7.50014 3.00045 7.4999H6.00045V2.2499C6.00045 2.05099 6.07947 1.86022 6.22012 1.71957C6.36077 1.57892 6.55154 1.4999 6.75045 1.4999H11.2505C11.4494 1.4999 11.6401 1.57892 11.7808 1.71957C11.9214 1.86022 12.0005 2.05099 12.0005 2.2499V7.4999H15.0005C15.1417 7.50014 15.2799 7.5402 15.3994 7.61547C15.5188 7.69074 15.6147 7.79818 15.6758 7.92544C15.737 8.0527 15.761 8.19464 15.7452 8.33495C15.7293 8.47525 15.6742 8.60825 15.5862 8.71865L9.5862 16.2187ZM11.2505 8.9999H10.5005V2.9999H7.50045V8.9999H4.5612L9.00045 14.5492L13.4397 8.9999H11.2505Z" fill="#7B8EC8"/>
</svg>
