<svg width="40" height="54" viewBox="0 0 40 54" fill="none" xmlns="http://www.w3.org/2000/svg">
<g filter="url(#filter0_d_543_6120)">
<path d="M15.8965 31.564L20.4645 34.1635L11.1884 50L8.52592 44.1472L15.8965 31.564Z" fill="#CE4444"/>
<path d="M15.8965 31.564L11.3285 28.9644L2.05239 44.8009L8.52592 44.1472L15.8965 31.564Z" fill="#983535"/>
<path d="M22.4141 31.564L17.8461 34.1635L27.1222 50L29.7846 44.1472L22.4141 31.564Z" fill="#983535"/>
<path d="M22.4141 31.564L26.982 28.9644L36.2582 44.8009L29.7846 44.1472L22.4141 31.564Z" fill="#CE4444"/>
<path d="M19.0157 36.2998C27.776 36.2998 34.8809 29.2995 34.8809 20.6599C34.8809 12.0204 27.776 5.02008 19.0157 5.02008C10.2555 5.02008 3.15051 12.0204 3.15051 20.6599C3.15051 29.2995 10.2555 36.2998 19.0157 36.2998Z" fill="url(#paint0_linear_543_6120)" stroke="#765C00" stroke-width="0.277103"/>
<ellipse cx="19.0153" cy="20.66" rx="12.2761" ry="12.1002" fill="#A88300"/>
<mask id="mask0_543_6120" style="mask-type:alpha" maskUnits="userSpaceOnUse" x="7" y="9" width="25" height="26">
<ellipse cx="19.6709" cy="21.9517" rx="12.3047" ry="12.1283" fill="#C28B37"/>
</mask>
<g mask="url(#mask0_543_6120)">
<ellipse cx="19.0156" cy="20.6599" rx="12.3047" ry="12.1283" fill="#C09525"/>
</g>
<path d="M19.082 12.2225L21.7363 17.455L27.0449 18.1091L23.3997 22.1381L24.3906 27.9201L19.082 25.3038L13.7734 27.9201L14.7732 22.1381L11.1191 18.1091L16.4277 17.455L19.082 12.2225Z" fill="url(#paint1_linear_543_6120)"/>
<path d="M3.80929 11.2629L5.53994 7.5086L3.80929 3.7543L7.61816 5.46016L11.427 3.7543L9.69638 7.5086L11.427 11.2629L7.61816 9.55704L3.80929 11.2629Z" fill="white"/>
</g>
<defs>
<filter id="filter0_d_543_6120" x="1.83562" y="3.53716" width="37.6788" height="49.7194" filterUnits="userSpaceOnUse" color-interpolation-filters="sRGB">
<feFlood flood-opacity="0" result="BackgroundImageFix"/>
<feColorMatrix in="SourceAlpha" type="matrix" values="0 0 0 0 0 0 0 0 0 0 0 0 0 0 0 0 0 0 127 0" result="hardAlpha"/>
<feOffset dx="1.51977" dy="1.51977"/>
<feGaussianBlur stdDeviation="0.868438"/>
<feComposite in2="hardAlpha" operator="out"/>
<feColorMatrix type="matrix" values="0 0 0 0 0 0 0 0 0 0 0 0 0 0 0 0 0 0 0.3 0"/>
<feBlend mode="normal" in2="BackgroundImageFix" result="effect1_dropShadow_543_6120"/>
<feBlend mode="normal" in="SourceGraphic" in2="effect1_dropShadow_543_6120" result="shape"/>
</filter>
<linearGradient id="paint0_linear_543_6120" x1="19.0157" y1="5.15863" x2="19.0157" y2="36.1613" gradientUnits="userSpaceOnUse">
<stop stop-color="#FFC600"/>
<stop offset="1" stop-color="#FFDE69"/>
</linearGradient>
<linearGradient id="paint1_linear_543_6120" x1="19.082" y1="12.2225" x2="19.082" y2="27.9201" gradientUnits="userSpaceOnUse">
<stop stop-color="#FFFCDD"/>
<stop offset="1" stop-color="#FFE896"/>
</linearGradient>
</defs>
</svg>
