<svg width="18" height="18" viewBox="0 0 18 18" fill="none" xmlns="http://www.w3.org/2000/svg">
<path d="M9.58522 16.2189C9.29947 16.5751 8.69947 16.5751 8.41372 16.2189L2.41372 8.7189C2.3257 8.60849 2.2706 8.4755 2.25475 8.33519C2.23889 8.19488 2.26293 8.05295 2.32409 7.92568C2.38526 7.79842 2.48108 7.69098 2.60054 7.61571C2.72 7.54044 2.85827 7.50039 2.99947 7.50015H5.99947V2.25015C5.99947 2.05123 6.07849 1.86047 6.21914 1.71982C6.3598 1.57916 6.55056 1.50015 6.74947 1.50015H11.2495C11.4484 1.50015 11.6392 1.57916 11.7798 1.71982C11.9205 1.86047 11.9995 2.05123 11.9995 2.25015V7.50015H14.9995C15.1407 7.50039 15.2789 7.54044 15.3984 7.61571C15.5179 7.69098 15.6137 7.79842 15.6749 7.92568C15.736 8.05295 15.7601 8.19488 15.7442 8.33519C15.7283 8.4755 15.6732 8.60849 15.5852 8.7189L9.58522 16.2189ZM11.2495 9.00015H10.4995V3.00015H7.49947V9.00015H4.56022L8.99947 14.5494L13.4387 9.00015H11.2495Z" fill="#FF6D6D"/>
<path d="M10.9163 2.88696H6.87727L6.76811 8.67254L4.03906 8.89086L9.16967 14.8948L13.9728 8.67254H10.9163V2.88696Z" fill="#FF6D6D"/>
</svg>
