<svg width="18" height="18" viewBox="0 0 18 18" fill="none" xmlns="http://www.w3.org/2000/svg">
<path d="M9.58522 1.7811C9.29947 1.42485 8.69947 1.42485 8.41372 1.7811L2.41372 9.2811C2.3257 9.39151 2.2706 9.5245 2.25475 9.66481C2.23889 9.80512 2.26293 9.94705 2.32409 10.0743C2.38526 10.2016 2.48108 10.309 2.60054 10.3843C2.72 10.4596 2.85827 10.4996 2.99947 10.4999H5.99947V15.7499C5.99947 15.9488 6.07849 16.1395 6.21914 16.2802C6.3598 16.4208 6.55056 16.4999 6.74947 16.4999H11.2495C11.4484 16.4999 11.6392 16.4208 11.7798 16.2802C11.9205 16.1395 11.9995 15.9488 11.9995 15.7499V10.4999H14.9995C15.1407 10.4996 15.2789 10.4596 15.3984 10.3843C15.5179 10.309 15.6137 10.2016 15.6749 10.0743C15.736 9.94705 15.7601 9.80512 15.7442 9.66481C15.7283 9.5245 15.6732 9.39151 15.5852 9.2811L9.58522 1.7811ZM11.2495 8.99985H10.4995V14.9999H7.49947V8.99985H4.56022L8.99947 3.4506L13.4387 8.99985H11.2495Z" fill="#6DFF8D"/>
<path d="M10.9163 15.113H6.87727L6.76811 9.32746L4.03906 9.10914L9.16967 3.10524L13.9728 9.32746H10.9163V15.113Z" fill="#6DFF8D"/>
</svg>
