<svg width="13" height="12" viewBox="0 0 13 12" fill="none" xmlns="http://www.w3.org/2000/svg">
<path d="M8 4.66667L7.34267 4.55733C7.3268 4.6528 7.3319 4.75057 7.35762 4.84386C7.38334 4.93715 7.42907 5.02373 7.49161 5.09757C7.55416 5.17141 7.63204 5.23075 7.71983 5.27146C7.80762 5.31218 7.90323 5.33329 8 5.33333V4.66667ZM0.666667 4.66667V4C0.489856 4 0.320286 4.07024 0.195262 4.19526C0.0702379 4.32029 0 4.48986 0 4.66667H0.666667ZM2 12H9.57333V10.6667H2V12ZM10.3733 4H8V5.33333H10.3733V4ZM8.658 4.776L9.19467 1.55267L7.88 1.33333L7.34267 4.55733L8.658 4.776ZM7.88 7.23347e-08H7.73733V1.33333H7.88V7.23347e-08ZM5.518 1.18733L3.84133 3.70333L4.95067 4.44333L6.628 1.92733L5.518 1.18733ZM3.28667 4H0.666667V5.33333H3.28667V4ZM0 4.66667V10H1.33333V4.66667H0ZM11.5347 10.392L12.3347 6.392L11.028 6.13067L10.228 10.1307L11.5347 10.392ZM3.84133 3.70333C3.78043 3.79461 3.69795 3.86945 3.60119 3.9212C3.50443 3.97295 3.39639 4.00002 3.28667 4V5.33333C3.61591 5.33331 3.94006 5.252 4.23034 5.09663C4.52061 4.94126 4.76805 4.71662 4.95067 4.44267L3.84133 3.70267V3.70333ZM9.19467 1.55267C9.22652 1.36169 9.21639 1.16607 9.165 0.979406C9.11361 0.792739 9.02217 0.619504 8.89706 0.471744C8.77195 0.323984 8.61616 0.205244 8.44053 0.123777C8.26489 0.0423109 8.07361 7.3078e-05 7.88 7.23347e-08V1.33333L9.19467 1.55267ZM10.3733 5.33333C10.472 5.33329 10.5694 5.35515 10.6586 5.39732C10.7478 5.43949 10.8265 5.50093 10.889 5.57721C10.9516 5.65348 10.9965 5.74269 11.0204 5.8384C11.0443 5.93411 11.0473 6.03393 11.028 6.13067L12.3347 6.392C12.3927 6.1019 12.3856 5.80255 12.3139 5.51552C12.2422 5.22849 12.1078 4.96094 11.9202 4.73214C11.7327 4.50334 11.4967 4.319 11.2294 4.19239C10.962 4.06579 10.6698 4.00008 10.374 4V5.33333H10.3733ZM9.57333 12C10.0357 12 10.4839 11.8398 10.8415 11.5466C11.1991 11.2535 11.444 10.8454 11.5347 10.392L10.228 10.1307C10.1978 10.282 10.116 10.4181 9.99659 10.5158C9.87721 10.6136 9.72762 10.6669 9.57333 10.6667V12ZM7.73733 7.23347e-08C7.29825 -0.000102187 6.86593 0.108221 6.47877 0.31535C6.09161 0.52248 5.76158 0.822006 5.518 1.18733L6.628 1.92733C6.74972 1.74465 6.91466 1.59486 7.10818 1.49123C7.30171 1.38761 7.51782 1.33337 7.73733 1.33333V7.23347e-08ZM2 10.6667C1.82319 10.6667 1.65362 10.5964 1.5286 10.4714C1.40357 10.3464 1.33333 10.1768 1.33333 10H0C0 10.5304 0.210714 11.0391 0.585787 11.4142C0.960859 11.7893 1.46957 12 2 12V10.6667Z" fill="#1DA1F2"/>
<path d="M3.3335 4.6665V11.3332" stroke="#1DA1F2"/>
</svg>
