<svg width="18" height="19" viewBox="0 0 18 19" fill="none" xmlns="http://www.w3.org/2000/svg">
<path d="M7.39062 10.3045C7.73613 10.7664 8.17694 11.1486 8.68315 11.4252C9.18935 11.7018 9.74912 11.8662 10.3245 11.9074C10.8998 11.9486 11.4773 11.8656 12.0178 11.664C12.5582 11.4624 13.049 11.1469 13.4568 10.739L15.8704 8.32538C16.6032 7.56669 17.0086 6.55056 16.9995 5.49583C16.9903 4.4411 16.5672 3.43216 15.8214 2.68633C15.0756 1.94049 14.0666 1.51744 13.0119 1.50827C11.9572 1.4991 10.941 1.90457 10.1824 2.63733L8.79856 4.01308" stroke="#7B8EC8" stroke-width="1.2" stroke-linecap="round" stroke-linejoin="round"/>
<path d="M10.609 8.69545C10.2635 8.23355 9.82267 7.85135 9.31647 7.57478C8.81026 7.29822 8.2505 7.13376 7.67514 7.09255C7.09978 7.05135 6.52229 7.13436 5.98184 7.33597C5.44139 7.53757 4.95062 7.85305 4.54281 8.261L2.12921 10.6746C1.39645 11.4333 0.990987 12.4494 1.00015 13.5042C1.00932 14.5589 1.43238 15.5678 2.17821 16.3137C2.92405 17.0595 3.93298 17.4825 4.98771 17.4917C6.04244 17.5009 7.05858 17.0954 7.81726 16.3627L9.19301 14.9869" stroke="#7B8EC8" stroke-width="1.2" stroke-linecap="round" stroke-linejoin="round"/>
</svg>
