<svg width="20" height="21" viewBox="0 0 20 21" fill="none" xmlns="http://www.w3.org/2000/svg">
<path d="M15.625 8.625C15.625 7.13316 15.0324 5.70242 13.9775 4.64752C12.9226 3.59263 11.4918 3 10 3C8.50816 3 7.07742 3.59263 6.02252 4.64752C4.96763 5.70242 4.375 7.13316 4.375 8.625C4.375 10.9325 6.22125 13.94 10 17.5425C13.7788 13.94 15.625 10.9325 15.625 8.625ZM10 19.25C5.41625 15.0837 3.125 11.5413 3.125 8.625C3.125 6.80164 3.84933 5.05295 5.13864 3.76364C6.42795 2.47433 8.17664 1.75 10 1.75C11.8234 1.75 13.572 2.47433 14.8614 3.76364C16.1507 5.05295 16.875 6.80164 16.875 8.625C16.875 11.5413 14.5837 15.0837 10 19.25Z" fill="#7B8EC8"/>
<path d="M10 10.5C10.4973 10.5 10.9742 10.3025 11.3258 9.95083C11.6775 9.59919 11.875 9.12228 11.875 8.625C11.875 8.12772 11.6775 7.65081 11.3258 7.29917C10.9742 6.94754 10.4973 6.75 10 6.75C9.50272 6.75 9.02581 6.94754 8.67417 7.29917C8.32254 7.65081 8.125 8.12772 8.125 8.625C8.125 9.12228 8.32254 9.59919 8.67417 9.95083C9.02581 10.3025 9.50272 10.5 10 10.5ZM10 11.75C9.1712 11.75 8.37634 11.4208 7.79029 10.8347C7.20424 10.2487 6.875 9.4538 6.875 8.625C6.875 7.7962 7.20424 7.00134 7.79029 6.41529C8.37634 5.82924 9.1712 5.5 10 5.5C10.8288 5.5 11.6237 5.82924 12.2097 6.41529C12.7958 7.00134 13.125 7.7962 13.125 8.625C13.125 9.4538 12.7958 10.2487 12.2097 10.8347C11.6237 11.4208 10.8288 11.75 10 11.75Z" fill="#7B8EC8"/>
</svg>
