<svg width="18" height="18" viewBox="0 0 18 18" fill="none" xmlns="http://www.w3.org/2000/svg">
<path d="M9.5862 1.78135C9.30045 1.4251 8.70045 1.4251 8.4147 1.78135L2.4147 9.28135C2.32668 9.39175 2.27158 9.52475 2.25572 9.66505C2.23987 9.80536 2.26391 9.9473 2.32507 10.0746C2.38624 10.2018 2.48205 10.3093 2.60152 10.3845C2.72098 10.4598 2.85925 10.4999 3.00045 10.5001H6.00045V15.7501C6.00045 15.949 6.07947 16.1398 6.22012 16.2804C6.36077 16.4211 6.55154 16.5001 6.75045 16.5001H11.2505C11.4494 16.5001 11.6401 16.4211 11.7808 16.2804C11.9214 16.1398 12.0005 15.949 12.0005 15.7501V10.5001H15.0005C15.1417 10.4999 15.2799 10.4598 15.3994 10.3845C15.5188 10.3093 15.6147 10.2018 15.6758 10.0746C15.737 9.9473 15.761 9.80536 15.7452 9.66505C15.7293 9.52475 15.6742 9.39175 15.5862 9.28135L9.5862 1.78135ZM11.2505 9.0001H10.5005V15.0001H7.50045V9.0001H4.5612L9.00045 3.45085L13.4397 9.0001H11.2505Z" fill="#7B8EC8"/>
</svg>
